<?xml version="1.0" encoding="utf-8"?>
<!-- Generator: Adobe Illustrator 19.1.0, SVG Export Plug-In . SVG Version: 6.00 Build 0)  -->
<svg version="1.1" id="Layer_1" xmlns="http://www.w3.org/2000/svg" xmlns:xlink="http://www.w3.org/1999/xlink" x="0px" y="0px"
	 viewBox="0 258 612 278" style="enable-background:new 0 258 612 278;" xml:space="preserve">
<style type="text/css">
	.st0{fill:#FFFFFF;}
</style>
<g>
	<g id="_x21_00_group">
		<path id="_x31_" class="st0" d="M152.5,463.4h52.3v49.4H34.1v-49.4h54.8V357.9c-20.8,9.2-37.1,14.6-48.8,16.3v-49.9
			c31.5-6.8,52.9-19.1,64.2-36.7h48.1L152.5,463.4L152.5,463.4z"/>
		<path id="_x30_" class="st0" d="M564,320.1c-15-21.7-36.5-32.6-64.5-32.6c-26.8,0-48.1,10.2-64.1,30.6c-16,20.4-24,48.2-24,83.4
			c0,34.4,7.8,62.1,23.4,83.2c15.6,21.1,36.8,31.6,63.6,31.6c26.5,0,47.9-10.2,64-30.6c16.1-20.4,24.1-47.8,24.1-82.3
			C586.4,369.6,578.9,341.8,564,320.1z M517.6,451.3c-3.1,11.9-9.4,17.8-18.7,17.8c-8.6,0-14.5-5-17.8-14.9c-3.3-9.9-5-28.5-5-55.7
			c0-20.1,1.6-35.8,5-47.2c3.3-11.4,9.3-17.1,18-17.1c7.1,0,12.8,4.3,17,13c4.2,8.7,6.3,27.1,6.3,55.4
			C522.3,423.2,520.8,439.4,517.6,451.3z"/>
		<path id="Soldier_cut_out" class="st0" d="M368.7,320.1c-15-21.7-36.5-32.6-64.5-32.6c-26.8,0-48.1,10.2-64.1,30.6
			c-16,20.4-24,48.2-24,83.4c0,34.4,7.8,62.1,23.4,83.2c15.1,20.4,35.4,30.9,60.9,31.6c-2.6-7.9-5.6-15.9-5.7-26
			c-1.9-0.6-7.1-5.3-7.9-7.1c-1.6-3.6-1.8-11.6-1.5-16.7c0.1-1.4,0.6-3.7,0.2-5.4c-0.2-1.1-0.6-2.4-0.9-3.4
			c-0.1-1.7-0.1-3.4-0.2-5.1c-0.3-1.1-1.3-2-1.7-3c-0.3-0.8,0-2.5-0.4-3.2c-0.4-0.4-1-0.5-1.5-0.9c-0.6-0.6-1.1-1.3-1.7-1.9
			c-1.3-0.9-2.4-0.6-3.2-1.9c-1-1.4,0-3.8,0-5.4c0.1-5.1-0.2-10.4,0.9-14.8c1.2-5,0.9-10.4,2.1-15.2c0-1.6,0-3.3,0-4.9
			c-0.7-1.4-2.3-4-1.5-6.9c0.4-1.4,0.6-4.6,1.3-6c0.5-1,1.5-1.6,1.9-3c0.6-2.2,0-5,0.6-7.3c0.2-0.7,0.6-2.1,0.9-3c0-1.4,0-2.9,0-4.3
			c0.3-1.1,0.2-2.6,0.6-4.3c0.6-1.6,1.1-3.3,1.7-4.9c0.4-1.2,0.4-3-0.2-3.9c-0.7-1.8-2.4-1.2-3.9-2.1c-1.4-0.9-3.5-5.5-4.7-7.1
			c-0.7-0.9-2-0.2-2.6-1.5c-0.6-1-0.4-4-0.4-5.4c-0.1,0-0.3,0-0.4,0c-0.8,0.5-3.2,0.2-4.1,0c0-0.3,0-0.6,0-0.9
			c2-2.5,2.2-6.3,1.3-9.9c-1.7-0.7-4.3-1.2-4.5-3.4c-0.1,0-0.1,0-0.2,0c0-0.1,0-0.1,0-0.2c0.8-0.6,1.3-1.6,2.1-2.1
			c2.9-1.9,7-2.1,10.7-3.2c1.9-0.5,5.9-1.3,8.6-0.6c2.2,0.5,4.7,1.4,6.6,2.1c3.7,1.3,8.8,1.8,8.8,6.6c-1.2,0.7-1.8,1.7-2.8,2.6
			c-0.1,0.7-0.1,1.4-0.2,2.1c0.1,0.6,0.8,2,0.6,2.6c-0.1,0.3-0.8,0.8-0.9,1.1c-0.6,1.6,0.1,3.2,0.4,4.5c0.4,0.4,0.9,0.7,1.3,1.1
			c1,0.5,2.1,0.3,3,0.9c1.5,1.9,3,3.9,4.5,5.8c1.7,1.2,8.5,3.5,11.1,3.6c0-0.1,0-0.3,0-0.4c0.7-1.2,0.1-3.3,0.4-4.9
			c0.7-3.3,0.4-7.4,1.1-10.7c0-0.9,0-1.7,0-2.6c0.1-0.3,0.5,0,0.6-1.1c-0.4-0.1-0.9-0.1-1.3-0.2c0-0.5,0-1,0-1.5
			c0.2-0.2,0.2-0.4,0.2-0.9c1.4,0.3,1.4-0.5,1.3-2.1c0.6-0.9,0.9-9.1,0.9-10.5c1.1,0.1,2.1,0.1,3.2,0.2c0,0.5,0,1,0,1.5
			c0.1,0.1,0.3,0.1,0.4,0.2c0.4,0.3,0.7,0.3,1.3,0.4c0,0.3,0,0.6,0,0.9c0.1,0,0.1,0,0.2,0c0,0.1,0,0.1,0,0.2
			c1.7-0.1,2.4,0.1,2.8,1.3c0.5,0.8-0.4,1.2-0.9,1.7c-0.8,0-1.6,0-2.4,0c0.3,9.5-1.8,20.3-1.9,30.4c1.6,0.4,2.4,1.7,3.6,2.4
			c1.1,0.6,2.6,0.6,3.6,1.3c0.6,0.4,0.6,1.4,1.3,1.7c1.8,0.9,3.8,0.9,5.4,1.9c0.9,0.5,1.7,2.2,2.4,2.6c1.8,1.1,6,1.2,6.6,3.4
			c1,1.3,0.6,4.6,0.6,6.9c0,6.8,0.3,13.1-3.2,16.3c-0.1,1.1-0.1,2.3-0.2,3.4c2.8,0.1,5.2,1,7.5,1.5c0.2,0.4,0.5,0.8,0.9,1.1
			c0.2,3.7-0.8,6-1.7,9c-0.8,2.8-0.8,5.8-1.9,8.1c-1.3,0.2-2.4,0.8-3.4,1.1c-1,0.3-2.9,0-3.6,0.2c-1.3,0.3-2.5-1-3-0.6
			c-1.2,1.6-0.6,3.1-3.6,3c-0.9-0.7-2-0.2-3,0c-2.4,3.9-0.3,13-0.2,18.4c-0.1,0.1-3.9,3.6-3.9,3.6c-0.1,0.6-0.1,1.3-0.2,1.9
			c-0.3,1-1,2.1-1.3,3c-0.1,0.9-0.3,1.7-0.4,2.6c-0.8,2-3,3.4-3.9,5.4c-0.5,1.3-0.5,2.4-1.1,3.6c-0.4,1-1.3,2-1.7,3
			c-0.1,0.8-0.3,1.6-0.4,2.4c-0.6,1.6-1.8,3.3-2.4,5.1c-0.1,1.4-0.3,2.7-0.4,4.1c-0.8,1.9-3.4,2.2-3.6,4.1c1,0.5,1.4,1.7,2.1,2.4
			c1,0.8,2.7,1.5,3.4,2.6c1.5,2,2.6,4.2,4.3,6c0,1.5-1.1,3-0.9,3.9c0.3,1.1,1.3,2.4,1.7,3.4c1.6,3.8,3.1,7.2,5.4,10.3
			c1.1,1.4,3,3.1,4.5,4.1c0.5,0.3,1.4,0.4,1.8,0.8c12-5,22.5-13.2,31.4-24.4c16.1-20.4,24.1-47.8,24.1-82.3
			C391.1,369.6,383.7,341.8,368.7,320.1z"/>
	</g>
</g>
</svg>
