<?xml version="1.0" encoding="utf-8"?>
<!-- Generator: Adobe Illustrator 19.1.0, SVG Export Plug-In . SVG Version: 6.00 Build 0)  -->
<svg version="1.1" id="Layer_1" xmlns="http://www.w3.org/2000/svg" xmlns:xlink="http://www.w3.org/1999/xlink" x="0px" y="0px"
	 viewBox="-223 315.3 164 162.7" style="enable-background:new -223 315.3 164 162.7;" xml:space="preserve">
<style type="text/css">
	.st0{stroke:#245577;stroke-width:0.25;stroke-miterlimit:10;}
</style>
<g>
	<path class="st0" d="M-118.4,322c0.3,0.2,0.7,0.2,1.3-0.1c-0.6-0.2-1.2-0.4-1.8-0.5C-118.9,321.6-118.6,321.8-118.4,322z"/>
	<path class="st0" d="M-131.1,319c0.7,0.5,1.3,0.7,1.8,0.6c1-0.2,6.2,1.6,6.4,2.2c0.2,0.6-1.3,1.2-2.6,1c-0.6-0.1-1.8-0.3-2.7-0.6
		c-1.2-0.3-1.7-0.3-1.9,0c-0.2,0.3-0.1,0.5,0.5,0.7c0.4,0.2,1,0.8,1.2,1.3c0.6,1.2,2.4,2.2,3.3,1.8c0.9-0.4,0.9-0.5-0.1-1.1
		c-0.9-0.5-0.5-0.7,0.6-0.2c0.9,0.4,1.9-0.1,1.7-0.8c-0.1-0.3,0.2-0.5,1.1-0.8c1.9-0.5,2-0.6,1.8-1c-0.2-0.7-0.4-1-0.4-1.2
		c-3.6-1-7.3-1.7-11.1-2.2C-131.3,318.8-131.2,318.9-131.1,319z"/>
	<path class="st0" d="M-103.1,357.7c0.5,0.2,1.3,0,1.3-0.5c0-0.2-0.3-0.7-0.6-1.2c-0.5-0.8-0.7-0.9-1.1-0.6c-0.4,0.2-0.5,0.2-0.5,0
		c0-0.2-0.5-0.6-1.1-1c-1.4-0.8-1.8-1.6-1.4-2.5c0.3-0.7,1.5-1.1,2-0.8c0.7,0.5,0.9-0.2,0.3-1.1c-1.3-2.1-3.2-1.9-5.5,0.4
		c-1.5,1.5-1.6,1.9-0.8,2.4c0.3,0.2,0.6,0.5,0.6,0.8c0,0.3,0.5,1.1,1.1,1.8c1.4,1.7,1.7,2.5,1.5,4.5l-0.1,1.6l1.9,1.1
		c1.1,0.6,2,1.1,2,1.1c0,0,0.5-0.2,0.9-0.5c0.7-0.4,0.8-0.7,0.8-1.9c0-0.9-0.2-1.5-0.4-1.8c-0.2-0.2-0.6-0.8-0.9-1.3
		C-103.5,357.6-103.5,357.5-103.1,357.7z"/>
	<path class="st0" d="M-63.4,388.3c-0.2,0.4-0.6,0.9-0.9,1c-0.3,0.1-0.8,0.6-1,1.1c-0.3,0.5-1,1.4-1.7,2c-1,0.8-1.2,1.3-1.2,1.9
		c0.3,3.4-0.1,6.2-1.2,7.8c-1,1.6-1.1,1.7-1.9,1.2c-0.5-0.2-0.8-0.7-0.9-1.4c-0.1-0.6-0.7-2.2-1.3-3.7c-3.6-8.7-4.1-10.3-3.8-11.9
		c0.2-1.1-0.3-2.7-0.8-2.5c-0.2,0.1-0.4,0.3-0.4,0.6c0,1.4-1.5,1.7-2.6,0.4l-0.7-0.8l0.6-0.3c0.7-0.3,0.7-1.1-0.1-1
		c-0.3,0.1-0.9-0.3-1.3-0.7c-0.5-0.4-1-0.8-1.1-0.8s-0.3-0.3-0.4-0.6c-0.3-0.9-1.8-1.7-2.5-1.3c-0.7,0.3-6.8,0.3-7.8-0.1
		c-0.4-0.1-1.1-0.7-1.5-1.3c-0.8-1.1-0.9-1.1-2.1-0.7c-1.2,0.4-1.4,0.3-3-0.6c-1.4-0.8-1.8-1.2-2.2-2.3c-0.5-1.4-1.8-2.3-2.5-2
		c-0.2,0.1-0.5,0.6-0.6,1.1c-0.1,0.7,0,1.2,0.7,2.3c0.5,0.7,1,1.9,1.2,2.5c0.3,1.4,1,1.8,1.6,1c0.3-0.5,0.4-0.5,0.7-0.1
		c0.1,0.3,0.2,0.6,0.2,0.8c-0.2,0.5,1.5,1.4,2.2,1.2c0.4-0.1,1.2-0.8,1.8-1.6c1-1.2,1.3-1.3,1.1-0.3c-0.1,0.7,0.4,1.5,1.2,2
		c1.3,0.7,3,2.3,3,2.8c0,0.2-0.3,0.7-0.7,1.1c-0.4,0.4-1,1.3-1.3,2c-0.7,1.6-2.9,4-3.6,4c-0.8,0-2.1,0.8-2.6,1.6
		c-0.2,0.4-0.9,1-1.4,1.3c-2.7,1.5-5.9,3-6.8,3.2c-1,0.2-1.1,0.2-1.6-1c-0.3-0.7-0.6-2-0.8-2.9c-0.1-1.2-0.4-2-1-2.8
		c-0.4-0.6-0.8-1.2-0.8-1.3c0-0.2-0.5-0.9-1.1-1.6c-0.8-0.9-1.3-1.9-1.6-3.1c-0.3-1-0.8-2.2-1.1-2.7c-2.6-3.6-3.4-4.9-3.7-6.2
		c-0.5-1.8-0.9-2-1.1-0.7l-0.1,0.9l-1-1.3c-1.5-2.1-1.7-1.1-0.3,1.4c0.7,1.2,1.7,3.3,2.3,4.7s1.4,3,1.8,3.5c0.4,0.6,0.7,1.4,0.7,2
		c0,1.2,0.3,1.9,1.6,3.7c0.5,0.7,1,1.7,1.1,2.3c0.1,0.7,0.7,1.4,1.8,2.5c1.8,1.6,2.9,3.3,3.2,4.6c0.1,0.5,0.5,1.1,1,1.4
		c0.8,0.5,1.1,0.4,3.6-0.2c1.5-0.4,3.1-0.9,3.5-1.1l0.8-0.5l0.2,1.2c0.2,1.1,0,1.7-2,6c-2.2,4.6-2.3,4.8-4.4,6.7
		c-1.2,1.1-2.5,2.4-2.8,2.9c-0.3,0.5-1.4,2-2.4,3.2c-2.9,3.6-3.3,6.7-1.4,10.9c0.5,1.1,0.7,1.9,0.6,2.4c-0.1,0.4,0,1.5,0.1,2.4
		c0.3,1.4,0.2,1.8-0.2,2.8c-0.7,1.5-1.2,2-3.1,3c-0.8,0.5-1.5,1-1.5,1.1c0,0.2-0.6,1-1.3,1.9c-0.7,0.9-1.3,1.7-1.3,1.9
		c0,0.2,0.3,0.9,0.6,1.6c1,2.1,0.3,3.6-2,4.7c-1,0.4-1.3,1.4-1,3c0.1,0.9,0,1.2-0.4,1.4c-0.3,0.2-0.9,0.9-1.2,1.5
		c-1.2,2-4.5,5.6-6,6.5c-1.3,0.7-1.6,0.8-2.5,0.5c-0.8-0.3-1.5-0.2-2.8,0.2c-2.2,0.6-2,0.6-2.8-0.3l0,0c-0.6-0.7-0.7-1-0.6-1.9
		c0.1-0.9,0-1.4-0.5-2.3c-0.4-0.6-0.7-1.3-0.7-1.5c0-0.2-0.5-1.1-1.1-2c-0.9-1.4-1.1-2-1.3-3.8c-0.3-3.2-1.2-6.6-2.4-9
		c-0.6-1.2-1.2-2.8-1.3-3.5c-0.2-1.5,0.3-3.8,1.6-6.5l0.8-1.8l-0.5-1.6c-0.3-0.9-0.4-1.9-0.3-2.4c0.1-0.5,0-1.1-0.4-1.8
		c-0.3-0.6-0.7-1.8-1-2.7c-0.3-1.3-0.8-2.1-1.7-3.1c-1.8-2-2-2.7-1.5-4.9c1.1-4.3-0.1-6.9-3.1-6.4c-1.2,0.2-1.2,0.2-1.4-0.7
		c-0.1-0.7-0.5-1.1-1.3-1.6c-1.1-0.6-1.6-0.6-3,0c-0.3,0.1-1.6,0.6-2.8,1.1c-1.9,0.7-2.4,0.8-3.2,0.5c-0.8-0.2-1.4-0.2-3,0.3
		c-1.6,0.5-2.2,0.6-3.1,0.3c-1.8-0.6-5-3.7-5.4-5.5c-0.3-1.3-2.5-4.5-3.2-4.7c-0.5-0.1-0.5-0.3-0.2-0.5c0.3-0.2,0.2-0.3-0.2-0.4
		c-0.7-0.2-0.8-0.9-0.1-0.9c0.4,0,0.4,0,0.1-0.3c-0.3-0.2-0.3-0.3-0.1-0.3c0.2,0,0.1-0.4-0.2-1.1c-0.5-1-0.6-1.2-0.1-1.7
		c1.3-1.6,1.5-4.9,0.6-7c-0.5-1-0.2-2.4,0.8-3.9c0.4-0.5,1.1-1.9,1.6-3c0.9-1.9,2.9-4.5,3.4-4.5c0.6,0,2.5-2.3,2.5-3
		c0-1.6,0.9-3.2,2.3-4.2c0.8-0.5,1.6-1.5,2-2.1c0.7-1.2,0.8-1.3,1.5-0.6c0.3,0.2,1.1,0.5,1.7,0.6c1,0.2,1.4,0,2.8-0.8
		c2.4-1.5,3.9-1.8,6.7-1.6c1.8,0.1,2.7,0,3.6-0.4c1.3-0.6,2.4-0.2,2.1,0.7c-0.1,0.3,0,0.7,0.1,0.9c0.2,0.3,0.2,0.7,0,1.3
		c-0.3,0.8-0.2,1,0.4,1.7c0.4,0.5,1.1,1,1.6,1.1c2.3,0.5,2.9,0.8,3.4,1.7c0.3,0.6,0.8,1,1.5,1.1c0.6,0.1,1.4,0.4,1.9,0.7
		c0.8,0.4,0.9,0.4,1.5-0.2c0.4-0.4,0.6-0.9,0.5-1.3c-0.1-0.3,0-0.9,0.1-1.2c0.4-0.9,1.7-0.8,3.6,0.3c2.1,1.2,6.1,2,7.5,1.6
		c0.7-0.2,1.3-0.2,1.9,0c2,0.7,2.9,0.1,3.2-1.7c0.1-0.6,0.2-1.1,0.3-1.1c0.2,0,0.3-0.9,0.3-2.9c0-0.7,0.1-1.2,0.3-1.2
		c0.2,0,0.2-0.2,0-0.7c-0.3-0.7-1.1-0.7-2.7,0.1c-0.8,0.4-1,0.4-1.7-0.1c-0.9-0.6-1.9-0.7-2.2-0.2c-0.2,0.4-1.6,0.1-2.4-0.4
		c-0.6-0.4-1.1-1.6-1.1-2.4c0-0.3-0.3-0.8-0.6-1.1c-0.5-0.4-0.6-0.5-0.2-0.8c0.2-0.2,0.7-0.2,1.1-0.1c0.4,0.1,0.9-0.1,1.4-0.7
		c0.5-0.5,1.1-0.9,1.8-0.9c0.6,0,1.4-0.3,1.8-0.6c0.9-0.7,3.1-0.5,4.7,0.4c2.2,1.2,4.2,1.2,5-0.2c0.4-0.7,0.4-0.8,0-1.5
		c-0.2-0.4-1.4-1.3-2.5-2.1l-2.1-1.3l0.4-0.9c0.2-0.5,0.3-0.9,0.2-1s-0.1-0.4,0.1-0.6c0.1-0.2,0.3-0.6,0.3-0.8
		c0.1-0.5-0.4-0.3-2.6,0.8c-1.3,0.6-1.5,0.8-1.2,1.2c0.2,0.3,0.6,0.5,0.9,0.5c0.5,0,0.4,0.2-0.5,0.7c-1,0.6-1.1,0.6-1.8,0.1
		c-0.6-0.4-0.6-0.6-0.4-1c0.3-0.4,0.2-0.5-0.2-0.7c-0.3-0.1-0.7-0.4-0.8-0.7c-0.8-1.2-3.4,2-4.1,5.1c-0.4,1.5-0.3,1.5,0.3,2.1
		l0.7,0.6l-1.3,0.3c-0.7,0.2-1.6,0.2-2.1,0c-0.8-0.3-1.9,0.1-1.9,0.7c0,0.2-0.2,0.2-0.4,0.1c-0.2-0.1-0.6,0-0.8,0.2
		c-0.3,0.3-0.3,0.6,0.3,1.8c0.6,1.3,0.6,1.5,0.3,2.3c-0.5,1.1-0.9,1-1.6-0.3c-0.5-0.9-0.5-0.9,0.2-1c0.8-0.1,0.8-0.7,0.1-0.8
		c-1.7-0.3-2.7-1.3-2.7-3c0-1.3-1-2.7-2.3-3.1c-0.7-0.2-1.4-0.7-1.6-1c-0.2-0.3-0.9-0.8-1.4-1.1c-0.6-0.3-1.2-0.7-1.4-1.1
		c-0.3-0.5-0.5-0.5-0.9-0.3c-0.3,0.2-0.5,0.5-0.5,0.8c0,0.8,3.6,4.5,5.4,5.5c1.9,1.1,2.2,1.4,0.9,1.1c-1.2-0.3-1.5,0-1.1,1
		c0.3,0.7,0.2,0.9-0.3,1.5l-0.6,0.7l0.1-0.9c0.2-1.5-1.5-3.6-3-3.6c-0.5,0-2.6-2.2-3.1-3.4c-0.6-1.2-1.2-1.5-2.1-0.8
		c-1.4,1-2.4,1.4-3.5,1.2c-1.4-0.3-2.3,0.3-2.1,1.3c0.1,0.5,0.1,0.8-0.2,0.8c-0.2,0-0.8,0.4-1.2,0.8c-0.5,0.4-0.9,0.8-1,0.8
		c-0.3,0-1.3,2-1.3,2.7c0,0.7-1.1,2-2.2,2.6c-0.3,0.2-1.1,0.4-1.8,0.4c-0.9,0-1.2,0.2-1.4,0.7c-0.3,0.6-0.3,0.6-1-0.2
		c-0.7-0.8-1.1-0.9-2.4-1.2c-0.7-0.1-0.8-1.9-0.3-4.5c0.2-1.1,0.3-2.4,0.3-2.8c-0.3-1.2,0.6-1.9,2-1.7c3.2,0.6,5.1,0.6,5.6,0.1
		c0.6-0.7,0.9-2.9,0.5-4.2c-0.2-0.8-0.6-1.2-1.6-1.6c-1.5-0.6-1.5-1.2-0.1-1.2c0.5,0,1.3-0.3,1.7-0.6s0.9-0.5,1-0.4
		c0.4,0.3,1.9-0.7,2.4-1.6c0.2-0.4,0.7-0.8,1.1-0.9c0.3-0.1,1.3-0.8,2-1.6c1.1-1.1,1.7-1.5,2.6-1.6c1.2-0.2,2.3-1.2,1.8-1.6
		c-0.3-0.3-0.6-1.8-0.4-2.3c0.1-0.3,0.5-0.7,0.9-1l0.7-0.5l-0.2,1.3c-0.2,1.1-0.1,1.3,0.3,1.2c0.3-0.1,0.8-0.3,1.1-0.5
		c0.5-0.3,0.7-0.3,0.8,0.1c0.2,0.7-0.4,1.5-0.9,1.1c-0.3-0.2-0.4-0.2-0.6,0c-0.1,0.3-0.3,0.3-0.4-0.1c-0.1-0.2-0.3-0.3-0.4-0.3
		c-0.1,0.1,0.1,0.6,0.5,1.1c0.6,0.8,0.7,0.9,1.6,0.5c0.7-0.3,1.1-0.3,1.7,0.1c0.7,0.4,0.9,0.4,2.3-0.2c1.2-0.5,1.6-0.6,2.2-0.3
		c0.5,0.2,0.8,0.2,1.3,0c1.3-0.7,1.6-1.3,1.5-2.3c-0.2-1.5,0.2-2,1.3-1.5c0.8,0.3,1,0.3,1.3-0.1c0.4-0.4,0.3-0.6-0.3-1.3
		c-0.6-0.7-0.6-0.9-0.3-1.1c0.2-0.2,1.1-0.2,1.9-0.1c1.5,0.2,3.4-0.5,3-1.1c-0.3-0.5-2-0.7-3.5-0.3c-1.3,0.3-1.6,0.3-2.6-0.2
		c-1.5-0.8-1.7-1.7-0.7-3.3c1.4-2.1,1.6-2.8,1.2-3.3c-0.6-0.8-1.1-0.5-2.4,1.1c-0.7,0.9-1.6,1.7-2.1,1.9s-1,0.8-1.3,1.3
		c-0.4,0.8-0.4,1,0,1.7c0.2,0.4,0.7,0.8,1,0.9c0.9,0.3,0.7,0.9-0.5,1.8c-0.4,0.3-0.9,1.1-1.1,1.8c-0.3,0.9-0.8,1.5-1.5,2
		c-1,0.6-1.1,0.7-1.6,0.1c-0.3-0.3-0.6-1-0.7-1.4c-0.1-0.5-0.5-1.3-0.9-1.9l-0.8-1l-1,0.7c-0.5,0.4-1.2,0.7-1.5,0.7
		c-0.9,0-1.9-1.1-2-2.1c0-0.5-0.1-1.1-0.3-1.4c-0.3-0.7,1-2,2.3-2.4c1.3-0.4,4-2.5,4.4-3.5c0.2-0.4,0.9-1.3,1.5-2
		c0.6-0.6,1.2-1.3,1.2-1.5s0.6-0.6,1.3-0.8c0.7-0.3,2-0.8,2.8-1.2c0.2-0.1,0.4-0.1,0.5-0.2c-0.3,0-0.7,0-1,0
		c-10.7,0-20.9,2.1-30.2,6l0.1,0.1l-0.7,0.6c-0.6,0.5-1.6,0.9-4.2,1.7c-0.1,0-0.2,0-0.3,0c-25.6,12.9-43.2,39.5-43.2,70.1
		c0,6.9,0.9,13.6,2.6,20c0.4,0,0.8,0.1,1.4,0.5c0.9,0.5,1.2,0.9,1.2,1.4c-0.1,1.2,0.1,1.5,0.9,0.9c0.6-0.4,1-0.5,3-0.2
		c2.1,0.3,2.4,0.5,3.4,1.6c0.8,0.8,1.6,1.4,2.7,1.7c1.4,0.5,1.6,0.6,1.8,1.7c0.4,1.6-0.1,3.3-1.3,4.9c-0.5,0.7-1.1,1.7-1.4,2.3
		c-0.3,0.6-0.8,1.4-1.2,1.8c-0.7,0.8-0.7,1-0.6,2.8c0.1,0.9,0,1.9-0.1,3c14,21.6,38.3,36,66,36c43.4,0,78.5-35.1,78.5-78.5
		c0-3-0.2-6-0.5-8.9C-63.2,387.9-63.3,388.1-63.4,388.3z M-124.4,365.2c0.3,0,0.6-0.1,0.7-0.3c0.3-0.5,0.7-0.4,0.5,0.1
		c-0.2,0.5-1.4,1.2-1.6,0.9C-125.1,365.5-124.9,365.2-124.4,365.2z M-134.1,364.9c1.4,0,2.4,0.3,2.2,0.6c-0.2,0.4-1.5,0.3-2.5-0.2
		l-0.8-0.4L-134.1,364.9z M-146.4,361.3c0.7-0.2,2.3,0.1,2.2,0.4c0,0.1-0.1,0.4-0.2,0.7c-0.2,0.5-0.3,0.5-1.4-0.2
		C-146.9,361.5-146.9,361.4-146.4,361.3z M-150.7,354.6c0.3-0.1,0.4,0,0.4,0.6c0,0.8-0.3,1-0.7,0.6
		C-151.3,355.4-151.2,354.8-150.7,354.6z M-151.3,357.3c0.6-0.6,1-0.2,1,1c0,1.4-0.7,1.7-1.1,0.4
		C-151.7,358-151.6,357.7-151.3,357.3z M-158,359L-158,359c0.2-0.6,1.1-0.7,0.9-0.1c-0.1,0.2-0.3,0.4-0.6,0.5
		C-158.1,359.5-158.2,359.4-158,359z M-140.5,330.6c0.3,0,0.5,0.2,0.5,0.4c0,0.5-0.1,0.5-0.7,0.2
		C-141.2,331-141.1,330.6-140.5,330.6z M-164.3,327.6c0.2,0,0.4,0.1,0.4,0.3c0,0.1-0.2,0.3-0.4,0.3c-0.2,0-0.4-0.1-0.4-0.3
		C-164.7,327.7-164.5,327.6-164.3,327.6z M-164.8,343.7L-164.8,343.7c0.3-0.2,0.9-0.5,1.4-0.6c1-0.4,0.8-0.8-0.4-1.1
		c-0.8-0.2-0.9-0.2-0.4-0.6c0.3-0.2,0.4-0.6,0.3-0.8c-0.1-0.2,0.2-0.5,0.7-0.7c0.5-0.2,0.8-0.5,0.8-0.6c0-0.7-0.6-2-0.9-1.9
		c-0.8,0.1-1.1,0-1-0.4c0.1-0.2,0-0.6-0.1-0.9c-0.4-0.8,0.5-2.4,1.2-2.4c0.1,0,0.2,0.2,0.1,0.4s0.2,0.4,0.6,0.5l0.7,0.1l-0.6,0.8
		l-0.6,0.8l0.7,0.3c0.8,0.3,1.5,1.4,2.3,3.2c0.4,0.9,0.6,1.1,1,1c0.9-0.3,1,0.4,0.2,1c-0.5,0.4-0.7,0.6-0.4,0.9
		c0.2,0.3-0.2,0.4-1.9,0.7c-1.2,0.2-2.6,0.4-3.2,0.6C-165.2,344-165.3,344-164.8,343.7z M-164.4,338.8c0-0.1,0.1-0.2,0.3-0.3
		c0.2-0.1,0.3,0,0.3,0.1s-0.1,0.3-0.3,0.3C-164.3,339-164.4,338.9-164.4,338.8z M-169.2,339.5c-0.5-0.3-0.3-0.8,0.4-1
		c0.4-0.1,0.8-0.4,1-0.6c0.4-0.5,2.1-0.6,2.4-0.1c0.1,0.2,0,0.6-0.3,1c-0.2,0.4-0.4,1.1-0.4,1.5c0,0.7-0.2,0.9-1.2,1.3
		c-0.7,0.3-1.4,0.6-1.7,0.7c-0.3,0.1-0.5,0-0.6-0.3c-0.1-0.3,0-0.9,0.2-1.4C-169.1,340-169,339.6-169.2,339.5z M-189.9,391.3
		c-0.1,0-0.2-0.1-0.3-0.3c-0.1-0.2,0-0.3,0.1-0.3c0.2,0,0.3,0.1,0.3,0.3C-189.8,391.2-189.9,391.3-189.9,391.3z M-187.3,393.8
		c-0.2,0-0.3-0.1-0.3-0.3c0-0.2,0.1-0.3,0.3-0.3c0.2,0,0.3,0.1,0.3,0.3C-187,393.7-187.1,393.8-187.3,393.8z M-153.1,414.7
		c-0.2,0-0.3-0.1-0.3-0.1c0-0.1,0.1-0.2,0.3-0.3c0.2-0.1,0.3,0,0.3,0.1S-153,414.7-153.1,414.7z M-151.4,410.9
		c-0.2,0-0.3-0.1-0.3-0.1s0.1-0.2,0.3-0.3c0.2-0.1,0.3,0,0.3,0.1S-151.3,410.9-151.4,410.9z M-110,433.6c0.2,0,0.3,0.1,0.3,0.3
		c0,0.2-0.1,0.3-0.1,0.3c-0.1,0-0.2-0.1-0.3-0.3C-110.2,433.7-110.1,433.6-110,433.6z M-104.5,441c-0.7,2.3-1.5,4.9-1.7,6
		c-0.7,3.3-1.1,4.1-2.3,4.5c-1.3,0.4-1.1,0.4-1.8,0c-0.8-0.5-0.9-0.8-1.1-2.6c-0.2-1.5-0.1-1.8,0.7-3.3c0.8-1.5,0.9-1.8,0.7-3.3
		c-0.3-2.3,0.2-3.5,1.4-3.8c1.1-0.3,3.6-2.7,4.2-4.1l0.4-1.1l0.3,0.8C-103,435.9-103.1,436.8-104.5,441z M-97,445.9
		c-0.2,0-0.3-0.1-0.3-0.3s0.1-0.3,0.3-0.3c0.2,0,0.3,0.1,0.3,0.3S-96.8,445.9-97,445.9z M-95.8,423.5c-0.2,0-0.3-0.1-0.3-0.3
		s0.1-0.3,0.3-0.3c0.2,0,0.3,0.1,0.3,0.3S-95.7,423.5-95.8,423.5z M-95,444.6c-0.2,0-0.3-0.1-0.3-0.1s0.1-0.2,0.3-0.3
		c0.2-0.1,0.3,0,0.3,0.1S-94.8,444.6-95,444.6z M-65.8,406c-0.3,0.5-1.4,0.8-1.6,0.5c-0.3-0.6-0.5-3.1-0.3-3.8
		c0.2-0.7,0.3-0.7,1,0.5C-65.8,404.6-65.6,405.5-65.8,406z"/>
</g>
</svg>
